<svg xmlns="http://www.w3.org/2000/svg" viewBox="0 0 48 48" id="instagram"><defs><linearGradient id="a" x1="9.86" x2="38.14" y1="40.85" y2="7.15" gradientTransform="rotate(76.72 23.997 23.997)" gradientUnits="userSpaceOnUse"><stop offset="0" stop-color="#fbe18a"></stop><stop offset=".21" stop-color="#fcbb45"></stop><stop offset=".38" stop-color="#f75274"></stop><stop offset=".52" stop-color="#d53692"></stop><stop offset=".74" stop-color="#8f39ce"></stop><stop offset="1" stop-color="#5b4fe9"></stop></linearGradient></defs><circle cx="24" cy="24" r="22" fill="url(#a)" transform="rotate(-76.72 23.997 23.997)"></circle><path fill="#fff" d="M18.84,23.64A5.16,5.16,0,1,1,24,28.8a5.16,5.16,0,0,1-5.16-5.16Zm-2.79,0a8,8,0,1,0,8-8,8,8,0,0,0-7.95,8Zm14.36-8.27a1.86,1.86,0,1,0,1.85-1.85,1.85,1.85,0,0,0-1.85,1.85ZM17.75,36.24a8.74,8.74,0,0,1-2.88-.53,5,5,0,0,1-1.78-1.16,4.82,4.82,0,0,1-1.16-1.78,8.74,8.74,0,0,1-.53-2.88c-.08-1.63-.09-2.12-.09-6.25s0-4.62.09-6.26a8.6,8.6,0,0,1,.53-2.87,5.15,5.15,0,0,1,2.94-2.94A8.74,8.74,0,0,1,17.75,11C19.38,11,19.87,11,24,11s4.62,0,6.26.09a8.6,8.6,0,0,1,2.87.53,5.15,5.15,0,0,1,2.94,2.94,8.6,8.6,0,0,1,.53,2.87c.08,1.64.09,2.12.09,6.26s0,4.62-.09,6.25a8.74,8.74,0,0,1-.53,2.88,4.82,4.82,0,0,1-1.16,1.78,5,5,0,0,1-1.78,1.16,8.6,8.6,0,0,1-2.87.53c-1.64.07-2.13.09-6.26.09s-4.62,0-6.25-.09Zm-.13-28A11.53,11.53,0,0,0,13.86,9,8,8,0,0,0,9.33,13.5a11.53,11.53,0,0,0-.72,3.76c-.07,1.65-.09,2.17-.09,6.38s0,4.73.09,6.38a11.59,11.59,0,0,0,.72,3.76,8,8,0,0,0,4.53,4.53,11.53,11.53,0,0,0,3.76.72c1.65.07,2.18.09,6.38.09s4.73,0,6.38-.09a11.53,11.53,0,0,0,3.76-.72,8,8,0,0,0,4.53-4.53A11.59,11.59,0,0,0,39.39,30c.07-1.65.09-2.18.09-6.38s0-4.73-.09-6.38a11.53,11.53,0,0,0-.72-3.76A8,8,0,0,0,34.14,9a11.53,11.53,0,0,0-3.76-.72c-1.65-.07-2.17-.09-6.38-.09s-4.73,0-6.38.09Z"></path></svg>